<?xml version="1.0" encoding="utf-8"?>
<!-- Generator: Adobe Illustrator 23.0.3, SVG Export Plug-In . SVG Version: 6.00 Build 0)  -->
<svg version="1.1" id="Laag_1" xmlns="http://www.w3.org/2000/svg" xmlns:xlink="http://www.w3.org/1999/xlink" x="0px" y="0px"
	 viewBox="0 0 423.4 585.3" style="enable-background:new 0 0 423.4 585.3;" xml:space="preserve">
<style type="text/css">
	.st0{fill:#C6C6C6;}
	.st1{fill:#FFFFFF;}
</style>
<title>locked</title>
<g>
	<path class="st0" d="M211.7,600.4c-69.8,0-138.1-13-202.9-38.7l-0.1-0.1C-5.1,556-15,541.3-15,526.5V301.9
		c0-15,10.1-29.8,23.9-35.2l0.2-0.1c5.5-2.1,10.8-4,16.4-5.9v-89.5C25.5,68.5,109-15,211.7-15s186.2,83.5,186.2,186.2v89.5
		c5.6,2,11,3.9,16.4,5.9l0.2,0.1c13.9,5.4,23.9,20.2,23.9,35.2v224.6c0,14.9-10,29.7-23.8,35.2C349.8,587.3,281.5,600.4,211.7,600.4
		z M203.4,486.7c0.1,4.4,3.7,7.8,8.2,8l0.2,0c4.5,0,8.1-3.5,8.2-8v-85.4l7.4-4.4c10-5.9,15.9-15.8,15.9-26.5
		c-0.3-17.1-13.9-30.7-31.1-31l-0.5,0c-17.1,0-31.2,13.9-31.6,31c0,10.8,5.9,20.4,16,26.5l7.3,4.4V486.7z M211.8,228.7
		c32.6,0,65.2,2.9,97.3,8.7v-66.2c0-53.7-43.6-97.3-97.3-97.3s-97.3,43.6-97.3,97.3v66.2C146.6,231.6,179.2,228.7,211.8,228.7z"/>
	<path class="st1" d="M211.7,0c94.4,0,171.2,76.8,171.2,171.2V269c0.3,1.4,1.2,2.6,2.5,3.3c9.2,3.1,16.7,5.8,23.6,8.4
		c8.2,3.2,14.4,12.3,14.4,21.2v224.6c0,8.9-6.2,18-14.3,21.2c-63.4,25.1-130.4,37.7-197.4,37.7s-134-12.6-197.4-37.7
		C6.2,544.4,0,535.3,0,526.5V301.9c0-8.9,6.2-18,14.4-21.2c6.9-2.6,14.4-5.3,23.7-8.4c1.3-0.6,2.2-1.9,2.4-3.3v-97.8
		C40.5,76.8,117.3,0,211.7,0 M99.5,255.6c37-7.9,74.6-11.9,112.3-11.9s75.3,4,112.3,11.9v-84.4c0-62.1-50.3-112.3-112.3-112.3
		S99.5,109.2,99.5,171.2V255.6 M211.8,509.7c12.6,0,22.9-10.1,23.2-22.8v-77.1c13.7-8.1,23.3-22.4,23.3-39.5
		c-0.3-25.2-20.7-45.5-45.9-45.9c-0.2,0-0.5,0-0.7,0c-25.4,0-46.2,20.4-46.6,45.9c0,17.1,9.6,31.3,23.3,39.5v77.1
		c0.2,12.5,10.3,22.5,22.8,22.8C211.4,509.7,211.6,509.7,211.8,509.7 M211.7-30C100.8-30,10.5,60.3,10.5,171.2v79
		c-2.2,0.8-4.4,1.6-6.7,2.5l-0.2,0.1l-0.2,0.1c-19.7,7.7-33.5,27.9-33.5,49.1v224.6c0,20.9,13.6,41.1,33,49l0.1,0.1l0.1,0.1
		C69.9,602,140,615.4,211.7,615.4s141.8-13.4,208.4-39.8c19.6-7.7,33.3-27.9,33.3-49.1V301.9c0-21.2-13.8-41.5-33.5-49.1l-0.2-0.1
		l-0.2-0.1c-2.2-0.8-4.5-1.7-6.7-2.5v-78.9C412.9,60.3,322.6-30,211.7-30L211.7-30z M129.5,219.7v-48.5c0-45.4,36.9-82.3,82.3-82.3
		s82.3,36.9,82.3,82.3v48.5c-27.2-4-54.8-6-82.3-6S156.7,215.7,129.5,219.7L129.5,219.7z M195.1,370.5c0.3-8.9,7.6-16.1,16.6-16.1
		l0.3,0c9,0.1,16.2,7.2,16.4,16.1c-0.1,7.7-6,12-8.6,13.5l-8.1,4.8l-7.8-4.7C200.6,382.1,195.2,377.8,195.1,370.5L195.1,370.5z"/>
</g>
</svg>
