<?xml version="1.0" encoding="utf-8"?>
<!-- Generator: Adobe Illustrator 23.0.3, SVG Export Plug-In . SVG Version: 6.00 Build 0)  -->
<svg version="1.1" id="Laag_1" xmlns="http://www.w3.org/2000/svg" xmlns:xlink="http://www.w3.org/1999/xlink" x="0px" y="0px"
	 viewBox="0 0 423.4 585.3" style="enable-background:new 0 0 423.4 585.3;" xml:space="preserve">
<style type="text/css">
	.st0{fill:#C6C6C6;}
</style>
<title>locked</title>
<path class="st0" d="M414.5,266.7l-0.2-0.1c-5.4-2-10.8-3.9-16.4-5.9v-89.5C397.9,68.5,314.4-15,211.7-15S25.5,68.5,25.5,171.2v89.5
	c-5.6,1.9-10.9,3.8-16.4,5.9l-0.2,0.1C-4.9,272.1-15,286.9-15,301.9v224.6c0,14.8,9.9,29.5,23.7,35.1l0.1,0.1
	c64.8,25.7,133.1,38.7,202.9,38.7s138.1-13.1,202.9-38.7c13.8-5.5,23.8-20.3,23.8-35.2V301.9C438.4,286.9,428.4,272.1,414.5,266.7z
	 M235,409.8v77.1c-0.3,12.7-10.6,22.8-23.2,22.8c-0.2,0-0.4,0-0.6,0c-12.5-0.3-22.6-10.3-22.8-22.8v-77.1
	c-13.7-8.2-23.3-22.4-23.3-39.5c0.4-25.5,21.2-45.9,46.6-45.9c0.2,0,0.5,0,0.7,0c25.2,0.4,45.6,20.7,45.9,45.9
	C258.3,387.4,248.7,401.7,235,409.8z M324.1,255.6c-37-7.9-74.6-11.9-112.3-11.9c-37.7,0-75.3,4-112.3,11.9v-84.4
	c0-62,50.3-112.3,112.3-112.3s112.3,50.2,112.3,112.3V255.6z"/>
</svg>
