<?xml version="1.0" encoding="utf-8"?>
<!-- Generator: Adobe Illustrator 23.0.3, SVG Export Plug-In . SVG Version: 6.00 Build 0)  -->
<svg version="1.1" id="Laag_1" xmlns="http://www.w3.org/2000/svg" xmlns:xlink="http://www.w3.org/1999/xlink" x="0px" y="0px"
	 viewBox="0 0 423.4 585.3" style="enable-background:new 0 0 423.4 585.3;" xml:space="preserve">
<style type="text/css">
	.st0{fill:#0096FF;}
</style>
<title>locked</title>
<path class="st0" d="M211.7,0C117.3,0,40.5,76.8,40.5,171.2V269c-0.2,1.4-1.1,2.7-2.4,3.3c-9.3,3.1-16.8,5.8-23.7,8.4
	C6.2,283.9,0,293,0,301.9v224.6c0,8.8,6.2,17.9,14.3,21.2c126.8,50.2,268,50.2,394.8,0c8.1-3.2,14.3-12.3,14.3-21.2V301.9
	c0-8.9-6.2-18-14.4-21.2c-6.9-2.6-14.4-5.3-23.6-8.4c-1.3-0.7-2.2-1.9-2.5-3.3v-97.8C382.9,76.8,306.1,0,211.7,0z M165.1,370.3
	c0.4-25.8,21.6-46.3,47.3-45.9c25.2,0.4,45.6,20.7,45.9,45.9c0,17.1-9.6,31.4-23.3,39.5v77.1c-0.3,12.9-10.9,23.1-23.8,22.8
	c-12.5-0.3-22.6-10.3-22.8-22.8v-77.1C174.7,401.6,165.1,387.4,165.1,370.3z M324.1,171.2v84.4c-74-15.9-150.6-15.9-224.6,0v-84.4
	c0-62,50.3-112.3,112.3-112.3S324.1,109.1,324.1,171.2z"/>
</svg>
