<svg xmlns="http://www.w3.org/2000/svg" viewBox="0 0 512 315.19"><defs><style>.a{fill:#fdb62f;}</style></defs><title>tickets</title><path d="M511.76,321.24l-6-50.4a10,10,0,0,0-10.95-8.76,36.88,36.88,0,0,1-8.74-73.23,10,10,0,0,0,8.58-11.1l-6-50.4a32.84,32.84,0,0,0-36.49-28.71L100.89,140.56a32.65,32.65,0,0,0-21.75,12.1H32.83A32.87,32.87,0,0,0,0,185.49v50.77a10,10,0,0,0,9.83,10,36.88,36.88,0,0,1,0,73.75A10,10,0,0,0,0,330v50.76A32.87,32.87,0,0,0,32.83,413.6H386.57a32.87,32.87,0,0,0,32.83-32.84V365.33l63.65-7.6a32.82,32.82,0,0,0,28.71-36.49ZM399.4,347.58v33.18a12.85,12.85,0,0,1-12.83,12.84h-62V374.85a10,10,0,0,0-20,0v18.74H32.83A12.84,12.84,0,0,1,20,380.76V339a56.63,56.63,0,0,0,29.74-16,56.89,56.89,0,0,0,0-79.8,56.53,56.53,0,0,0-29.74-16V185.49a12.85,12.85,0,0,1,12.83-12.83H304.57V294.43a10,10,0,0,0,20,0V172.66h62a12.85,12.85,0,0,1,12.83,12.83v41.78a56.9,56.9,0,0,0,0,111.72v8.59Zm89.85-14.51a12.78,12.78,0,0,1-8.57,4.81l-61.28,7.31V330a10,10,0,0,0-9.83-10,36.88,36.88,0,0,1,0-73.75,10,10,0,0,0,9.83-10V185.49a32.87,32.87,0,0,0-32.83-32.83H168.3L454.5,118.5a12.84,12.84,0,0,1,14.26,11.22l4.95,41.48A56.9,56.9,0,0,0,487,282.13l4.95,41.48A12.72,12.72,0,0,1,489.25,333.07Z" transform="translate(0 -98.4)"/><path d="M323.8,330.81a10.15,10.15,0,0,0-.92-1.72,9.57,9.57,0,0,0-1.24-1.52,10,10,0,0,0-1.52-1.24,9.91,9.91,0,0,0-1.73-.92,10.13,10.13,0,0,0-1.87-.58,9.8,9.8,0,0,0-5.78.58,10.14,10.14,0,0,0-3.24,2.16,9.63,9.63,0,0,0-1.25,1.52,10.15,10.15,0,0,0-.92,1.72,10.44,10.44,0,0,0-.57,1.88,10.1,10.1,0,0,0,0,3.9,10.1,10.1,0,0,0,.57,1.87,9.87,9.87,0,0,0,.92,1.73A9.93,9.93,0,0,0,309,343a10.15,10.15,0,0,0,1.72.92,9.6,9.6,0,0,0,1.87.57,9.66,9.66,0,0,0,3.91,0,9.39,9.39,0,0,0,1.87-.57,10.63,10.63,0,0,0,1.73-.92,10,10,0,0,0,1.52-1.24,9.57,9.57,0,0,0,1.24-1.52,9.87,9.87,0,0,0,.92-1.73,10.1,10.1,0,0,0,.57-1.87,9.61,9.61,0,0,0,0-3.9A10.44,10.44,0,0,0,323.8,330.81Z" transform="translate(0 -98.4)"/><path d="M241.86,257.27l-43.93-6.38-19.65-39.81a10,10,0,0,0-17.93,0l-17.28,35-2.36,4.79-16.63,2.41-27.3,4a10,10,0,0,0-5.54,17.06l26.45,25.78,5.33,5.2-3,17.63-4.48,26.12A10,10,0,0,0,130,359.6L169.32,339l39.29,20.65a10,10,0,0,0,14.51-10.54l-7.51-43.75,31.79-31a10,10,0,0,0-5.54-17.06Zm-44,37.39a10,10,0,0,0-2.88,8.85l5,29L174,318.8a10,10,0,0,0-9.31,0l-26,13.67,5-29a10.16,10.16,0,0,0-2.87-8.85l-12.33-12-8.72-8.5,10.06-1.46,19-2.77a8.76,8.76,0,0,0,.89-.18,10,10,0,0,0,6.64-5.29l13-26.35,13,26.35a10,10,0,0,0,7.53,5.47l29.08,4.23Z" transform="translate(0 -98.4)"/><path class="a" d="M399.4,227.27V185.49a12.85,12.85,0,0,0-12.83-12.83h-62V294.43a10,10,0,0,1-20,0V172.66H32.83A12.85,12.85,0,0,0,20,185.49v41.78a56.53,56.53,0,0,1,29.74,16,56.86,56.86,0,0,1,0,79.8A56.67,56.67,0,0,1,20,339v41.77a12.84,12.84,0,0,0,12.83,12.83H304.56V374.85a10,10,0,0,1,20,0v18.74h62a12.84,12.84,0,0,0,12.83-12.83V347.58h0V339a56.9,56.9,0,0,1,0-111.72ZM195,303.51l5,29L174,318.8a10,10,0,0,0-9.31,0l-26,13.67,5-29a10.09,10.09,0,0,0-2.87-8.85l-12.33-12-8.71-8.5,10-1.46,19-2.77a8.76,8.76,0,0,0,.89-.18,10,10,0,0,0,6.64-5.29l13-26.35,13,26.35a10,10,0,0,0,7.53,5.47l29.08,4.23-21,20.51A10,10,0,0,0,195,303.51Z" transform="translate(0 -98.4)"/><path d="M169.32,238.1l13,26.35a10,10,0,0,0,7.53,5.47l29.08,4.23-21,20.51a10,10,0,0,0-2.88,8.85l5,29L174,318.8a10,10,0,0,0-9.31,0l-26,13.67,5-29a10.09,10.09,0,0,0-2.87-8.85l-12.33-12-8.71-8.5,10-1.46,19-2.77a8.76,8.76,0,0,0,.89-.18,10,10,0,0,0,6.64-5.29l13-26.35m0-18a18,18,0,0,0-16.14,10L142,252.71l-14.86,2.17-10.06,1.46a18,18,0,0,0-10,30.7l8.72,8.5,9.31,9.07-4.26,24.82a18,18,0,0,0,26.12,19l22.29-11.71L191.6,348.4a18,18,0,0,0,26.12-19l-4.25-24.82,18-17.57a18,18,0,0,0-10-30.7l-24.92-3.62-11.14-22.58a18,18,0,0,0-16.14-10Z" transform="translate(0 -98.4)"/></svg>