<?xml version="1.0" encoding="utf-8"?>
<!-- Generator: Adobe Illustrator 23.0.3, SVG Export Plug-In . SVG Version: 6.00 Build 0)  -->
<svg version="1.1" id="Laag_1" xmlns="http://www.w3.org/2000/svg" xmlns:xlink="http://www.w3.org/1999/xlink" x="0px" y="0px"
	 viewBox="0 0 512 315.2" style="enable-background:new 0 0 512 315.2;" xml:space="preserve">
<style type="text/css">
	.st0{fill:#FF640A;}
</style>
<title>tickets</title>
<path d="M511.8,222.8l-6-50.4c-0.6-5.4-5.5-9.3-11-8.8c-20.3,2.1-38.4-12.7-40.4-32.9c-2-19.8,12-37.6,31.7-40.3
	c5.4-0.7,9.2-5.7,8.6-11.1l-6-50.4c-2.2-18-18.5-30.9-36.5-28.7L100.9,42.2c-8.6,1-16.4,5.4-21.8,12.1H32.8C14.7,54.3,0,69,0,87.1
	v50.8c0,5.5,4.4,9.9,9.8,10c20.4,0.3,36.6,17.1,36.3,37.5c-0.3,19.9-16.4,35.9-36.3,36.3c-5.5,0.1-9.8,4.5-9.8,10v50.8
	c0,18.1,14.7,32.8,32.8,32.8h353.7c18.1,0,32.8-14.7,32.8-32.8v-15.4l63.6-7.6C501,257.2,513.9,240.9,511.8,222.8
	C511.8,222.9,511.8,222.8,511.8,222.8z M399.4,249.2v33.2c0,7.1-5.7,12.8-12.8,12.8h-62v-18.7c0-5.5-4.5-10-10-10s-10,4.5-10,10
	v18.7H32.8c-7.1,0-12.8-5.7-12.8-12.8v-41.8c11.3-2.2,21.7-7.8,29.7-16c21.8-22.1,21.8-57.7,0-79.8c-8.1-8.2-18.4-13.8-29.7-16V87.1
	c0-7.1,5.7-12.8,12.8-12.8h271.7V196c0,5.5,4.5,10,10,10s10-4.5,10-10V74.3h62c7.1,0,12.8,5.7,12.8,12.8v41.8
	c-30.9,6-51,35.8-45,66.7c4.4,22.8,22.2,40.6,45,45V249.2z M489.3,234.7c-2.1,2.7-5.2,4.4-8.6,4.8l-61.3,7.3v-15.2
	c0-5.5-4.4-9.9-9.8-10c-20.4-0.3-36.6-17.1-36.3-37.5c0.3-19.9,16.4-35.9,36.3-36.3c5.5-0.1,9.8-4.5,9.8-10V87.1
	c0-18.1-14.7-32.8-32.8-32.8H168.3l286.2-34.2c7-0.8,13.4,4.2,14.3,11.2l5,41.5c-29.9,9.6-46.4,41.6-36.8,71.6
	c7.1,22.1,26.9,37.7,50.1,39.4l5,41.5C492.4,228.6,491.4,232,489.3,234.7L489.3,234.7z"/>
<path d="M323.8,232.4c-0.3-0.6-0.6-1.2-0.9-1.7c-0.4-0.5-0.8-1.1-1.2-1.5c-0.5-0.5-1-0.9-1.5-1.2c-0.5-0.4-1.1-0.7-1.7-0.9
	c-0.6-0.3-1.2-0.4-1.9-0.6c-1.9-0.4-4-0.2-5.8,0.6c-1.2,0.5-2.3,1.2-3.2,2.2c-0.5,0.5-0.9,1-1.3,1.5c-0.4,0.5-0.7,1.1-0.9,1.7
	c-0.2,0.6-0.4,1.2-0.6,1.9c-0.3,1.3-0.3,2.6,0,3.9c0.1,0.6,0.3,1.3,0.6,1.9c0.2,0.6,0.6,1.2,0.9,1.7c0.7,1.1,1.7,2.1,2.8,2.8
	c0.5,0.4,1.1,0.7,1.7,0.9c0.6,0.3,1.2,0.4,1.9,0.6c1.3,0.3,2.6,0.3,3.9,0c0.6-0.1,1.3-0.3,1.9-0.6c0.6-0.3,1.2-0.6,1.7-0.9
	c0.5-0.4,1.1-0.8,1.5-1.2c0.5-0.5,0.9-1,1.2-1.5c0.4-0.5,0.7-1.1,0.9-1.7c0.3-0.6,0.4-1.2,0.6-1.9c0.3-1.3,0.3-2.6,0-3.9
	C324.2,233.7,324,233,323.8,232.4z"/>
<path d="M241.9,158.9l-43.9-6.4l-19.6-39.8c-2.4-5-8.4-7-13.4-4.5c-2,1-3.6,2.6-4.5,4.5l-17.3,35l-2.4,4.8l-16.6,2.4l-27.3,4
	c-5.5,0.8-9.3,5.9-8.5,11.3c0.3,2.2,1.3,4.2,2.9,5.7l26.5,25.8l5.3,5.2l-3,17.6l-4.5,26.1c-0.9,5.4,2.8,10.6,8.2,11.5
	c2.1,0.4,4.3,0,6.2-1l39.3-20.6l39.3,20.6c4.9,2.6,10.9,0.7,13.5-4.2c1-1.9,1.4-4.2,1-6.3l-7.5-43.8l31.8-31c4-3.9,4-10.2,0.2-14.1
	C246.1,160.2,244,159.2,241.9,158.9L241.9,158.9z M197.9,196.3c-2.4,2.3-3.4,5.6-2.9,8.9l5,29l-26-13.7c-2.9-1.5-6.4-1.5-9.3,0
	l-26,13.7l5-29c0.5-3.2-0.5-6.5-2.9-8.9l-12.3-12l-8.7-8.5l10.1-1.5l19-2.8c0.3,0,0.6-0.1,0.9-0.2c2.9-0.7,5.3-2.6,6.6-5.3l13-26.4
	l13,26.4c1.5,3,4.3,5,7.5,5.5l29.1,4.2L197.9,196.3z"/>
<path class="st0" d="M399.4,128.9V87.1c0-7.1-5.7-12.8-12.8-12.8h-62V196c0,5.5-4.5,10-10,10s-10-4.5-10-10V74.3H32.8
	C25.7,74.3,20,80,20,87.1v41.8c11.3,2.2,21.7,7.8,29.7,16c21.8,22.1,21.8,57.7,0,79.8c-8.1,8.2-18.4,13.8-29.7,15.9v41.8
	c0,7.1,5.7,12.8,12.8,12.8h271.7v-18.7c0-5.5,4.5-10,10-10s10,4.5,10,10v18.7h62c7.1,0,12.8-5.7,12.8-12.8v-33.2l0,0v-8.6
	c-30.9-6-51-35.8-45-66.7C358.8,151.1,376.6,133.3,399.4,128.9L399.4,128.9z M195,205.1l5,29l-26-13.7c-2.9-1.5-6.4-1.5-9.3,0
	l-26,13.7l5-29c0.5-3.2-0.5-6.5-2.9-8.9l-12.3-12l-8.7-8.5l10-1.5l19-2.8c0.3,0,0.6-0.1,0.9-0.2c2.9-0.7,5.3-2.6,6.6-5.3l13-26.4
	l13,26.4c1.5,3,4.3,5,7.5,5.5l29.1,4.2l-21,20.5C195.5,198.5,194.4,201.8,195,205.1z"/>
<path d="M169.3,139.7l13,26.4c1.5,3,4.3,5,7.5,5.5l29.1,4.2l-21,20.5c-2.4,2.3-3.4,5.6-2.9,8.9l5,29L174,220.4
	c-2.9-1.5-6.4-1.5-9.3,0l-26,13.7l5-29c0.5-3.2-0.5-6.5-2.9-8.9l-12.3-12l-8.7-8.5l10-1.5l19-2.8c0.3,0,0.6-0.1,0.9-0.2
	c2.9-0.7,5.3-2.6,6.6-5.3L169.3,139.7 M169.3,121.7c-6.8,0-13.1,3.9-16.1,10L142,154.3l-14.9,2.2l-10.1,1.5
	c-9.8,1.4-16.7,10.5-15.2,20.4c0.6,3.9,2.4,7.5,5.2,10.3l8.7,8.5l9.3,9.1l-4.3,24.8c-1.7,9.8,4.9,19.1,14.7,20.8
	c3.9,0.7,7.9,0,11.5-1.8l22.3-11.7l22.3,11.7c8.8,4.6,19.7,1.3,24.3-7.5c1.8-3.5,2.5-7.5,1.8-11.5l-4.3-24.8l18-17.6
	c7.1-6.9,7.3-18.3,0.3-25.5c-2.8-2.8-6.4-4.7-10.3-5.2l-24.9-3.6l-11.1-22.6C182.4,125.6,176.1,121.7,169.3,121.7L169.3,121.7z"/>
</svg>
